# ProBuilder 5.1.1
# https://unity3d.com/unity/features/worldbuilding/probuilder
# 22/11/2023 2:10:29 PM

mtllib ./TrueInstructions.mtl
o TrueInstructions

g TrueInstructions
v 0.1934349 0.005291428 -0.3004468
v 0.1934349 0.005291428 0.3004453
v -0.193434 0.005291428 -0.3004468
v -0.193434 0.005291428 0.3004453
v 0.1934349 -0.005290601 -0.3004468
v 0.1934349 -0.005290601 0.3004453
v -0.193434 -0.005290601 -0.3004468
v -0.193434 -0.005290601 0.3004453

vt 1.006499 0.3200417
vt -0.07071039 0.3200417
vt 1.006499 0.6920216
vt -0.07071039 0.6920217
vt 0.8069735 0.08118647
vt 0.2060814 0.08118647
vt 0.8069735 0.0917685
vt 0.2060814 0.0917685
vt 0.7988982 0.1062423
vt 0.4120293 0.1062423
vt 0.7988982 0.1168244
vt 0.4120293 0.1168244
vt 0.6123285 0.2166193
vt 0.2254596 0.2166193
vt 0.6123285 0.2272013
vt 0.2254596 0.2272013
vt 0.9776092 0.06242611
vt 0.3767171 0.06242611
vt 0.9776092 0.07300814
vt 0.3767171 0.07300814

vn 0 1 0
vn 1 0 0
vn 0 0 -1
vn 0 0 1
vn -1 -1.408157E-06 0

usemtl NoteMaterial
f 3/3/1 4/4/1 2/2/1 1/1/1
f 1/7/2 2/8/2 6/6/2 5/5/2
f 3/11/3 1/12/3 5/10/3 7/9/3
f 2/15/4 4/16/4 8/14/4 6/13/4
f 4/19/5 3/20/5 7/18/5 8/17/5

